<svg xmlns="http://www.w3.org/2000/svg" width="100" height="89" viewBox="0 0 100 89" fill="none"><path d="M65.6419 17.114L1.66797 45.0002H20.001C21.8426 45.0002 23.3343 46.4918 23.3343 48.3335V55.5034C23.3343 58.6616 25.6993 61.4933 28.8542 61.6582C32.2175 61.8349 35.0008 59.1583 35.0008 55.8334V48.5118C35.0008 46.8518 36.1357 45.3119 37.774 45.0452C39.8623 44.7052 41.6673 46.3085 41.6673 48.3335V52.2617C41.6673 54.4417 43.2356 56.4267 45.4039 56.645C47.8989 56.895 50.0005 54.9434 50.0005 52.5001V48.3335C50.0005 46.4918 51.4922 45.0002 53.3338 45.0002H68.3335C70.1752 45.0002 71.6668 46.4918 71.6668 48.3335V55.5034C71.6668 58.6616 74.0318 61.4933 77.1868 61.6582C80.55 61.8349 83.3333 59.1583 83.3333 55.8334V48.3335C83.3333 46.4918 84.8249 45.0002 86.6666 45.0002H98.3331C92.5215 24.6572 72.7735 18.2506 67.8069 16.9423C67.0836 16.7507 66.3269 16.8157 65.6419 17.114Z" fill="#BE8A60"></path><path d="M89.9999 45.0002V78.333C89.9999 80.1747 88.5082 81.6663 86.6666 81.6663H1.66797V83.333C1.66797 85.1746 3.15961 86.6662 5.00125 86.6662H94.9998C96.8414 86.6662 98.3331 85.1746 98.3331 83.333V45.0002H89.9999Z" fill="#F8F8F8"></path><path d="M95.0001 88.3324H5.00155C2.24492 88.3324 0.00162758 86.0891 0.00162758 83.3324V61.6661C0.00162758 60.7445 0.746616 59.9995 1.66827 59.9995C2.58992 59.9995 3.33491 60.7445 3.33491 61.6661V83.3324C3.33491 84.2524 4.08156 84.9991 5.00155 84.9991H95.0001C95.9201 84.9991 96.6667 84.2524 96.6667 83.3324V47.4014C96.6667 45.7814 96.3884 44.2164 95.8417 42.7464C89.4435 25.5684 72.4421 19.8851 67.3839 18.5518C67.0272 18.4568 66.6572 18.4901 66.3072 18.6418L4.33485 45.6547C3.72819 45.9197 3.33328 46.5197 3.33328 47.1813V51.6663C3.33328 52.5879 2.58829 53.3329 1.66664 53.3329C0.744988 53.3329 0 52.5879 0 51.6663V47.183C0 45.1964 1.17825 43.3964 3.00156 42.5998L64.9755 15.5868C66.0205 15.1319 67.1505 15.0436 68.2339 15.3319C73.6838 16.7669 92.0085 22.9034 98.9651 41.5848C99.6517 43.4264 100 45.3847 100 47.403V83.3324C100 86.0891 97.7567 88.3324 95.0001 88.3324Z" fill="#252627"></path><path d="M77.5069 63.3337C77.3719 63.3337 77.2369 63.3303 77.1019 63.3236C73.1203 63.1136 70.002 59.6771 70.002 55.5038V48.3339C70.002 47.4139 69.2554 46.6673 68.3354 46.6673H65.0621C64.1405 46.6673 63.3955 45.9223 63.3955 45.0006C63.3955 44.079 64.1405 43.334 65.0621 43.334H68.3354C71.092 43.334 73.3353 45.5773 73.3353 48.3339V55.5038C73.3353 57.8654 75.102 59.8804 77.2753 59.9937C78.4203 60.0687 79.5318 59.6504 80.3685 58.8554C81.2068 58.0604 81.6669 56.9871 81.6669 55.8321V48.3339C81.6669 45.5773 83.9102 43.334 86.6668 43.334H96.6667C97.5883 43.334 98.3333 44.079 98.3333 45.0006C98.3333 45.9223 97.5883 46.6673 96.6667 46.6673H86.6668C85.7468 46.6673 85.0002 47.4139 85.0002 48.3339V55.8338C85.0002 57.8804 84.1485 59.8637 82.6635 61.2737C81.2552 62.6104 79.4369 63.3337 77.5069 63.3337Z" fill="#252627"></path><path d="M29.172 63.3338C29.037 63.3338 28.902 63.3305 28.767 63.3238C24.7854 63.1138 21.6671 59.6772 21.6671 55.504V48.3341C21.6671 47.4141 20.9205 46.6674 20.0005 46.6674H2.99574C2.07409 46.6674 1.3291 45.9225 1.3291 45.0008C1.3291 44.0791 2.07409 43.3342 2.99574 43.3342H20.0005C22.7571 43.3342 25.0004 45.5775 25.0004 48.3341V55.504C25.0004 57.8656 26.767 59.8806 28.9403 59.9939C30.0937 60.0689 31.1986 59.6505 32.0336 58.8556C32.8719 58.0606 33.332 56.9873 33.332 55.8323V48.5107C33.332 45.9841 35.1252 43.7858 37.5035 43.3992C38.9702 43.1625 40.4502 43.5692 41.5701 44.5225C42.6901 45.4741 43.3334 46.8624 43.3334 48.3324V52.2607C43.3334 53.6623 44.3168 54.8606 45.5718 54.9856C46.2801 55.0623 46.9783 54.834 47.51 54.3523C48.04 53.8723 48.3333 53.2123 48.3333 52.499V48.3341C48.3333 45.5775 50.5766 43.3342 53.3333 43.3342H54.8399C55.7615 43.3342 56.5065 44.0791 56.5065 45.0008C56.5065 45.9225 55.7615 46.6674 54.8399 46.6674H53.3333C52.4133 46.6674 51.6666 47.4141 51.6666 48.3341V52.5007C51.6666 54.1457 50.9667 55.7223 49.7467 56.8273C48.5284 57.9306 46.8917 58.4673 45.2384 58.3056C42.3001 58.0089 40.0001 55.3556 40.0001 52.264V48.3341C40.0001 47.8441 39.7851 47.3808 39.4118 47.0624C39.0318 46.7424 38.5435 46.6091 38.0419 46.6908C37.2702 46.8158 36.6669 47.6157 36.6669 48.5124V55.834C36.6669 57.8806 35.8153 59.8639 34.3303 61.2739C32.9203 62.6105 31.1019 63.3338 29.172 63.3338Z" fill="#252627"></path><path d="M75.0012 33.3334C79.6035 33.3334 83.3344 29.6025 83.3344 25.0002C83.3344 20.3979 79.6035 16.667 75.0012 16.667C70.3989 16.667 66.668 20.3979 66.668 25.0002C66.668 29.6025 70.3989 33.3334 75.0012 33.3334Z" fill="#F8F8F8"></path><path d="M75.0016 16.667C71.2767 16.667 68.1601 19.1286 67.0918 22.5002C68.1584 25.8718 71.275 28.3335 75.0016 28.3335C78.7266 28.3335 81.8431 25.8718 82.9114 22.5002C81.8431 19.1286 78.7266 16.667 75.0016 16.667Z" fill="white"></path><path d="M74.9998 35.0004C69.4849 35.0004 65 30.5155 65 25.0006C65 19.4857 69.4849 15.0007 74.9998 15.0007C80.5147 15.0007 84.9997 19.4857 84.9997 25.0006C84.9997 30.5155 80.5147 35.0004 74.9998 35.0004ZM74.9998 18.334C71.3232 18.334 68.3333 21.324 68.3333 25.0006C68.3333 28.6772 71.3232 31.6671 74.9998 31.6671C78.6764 31.6671 81.6664 28.6772 81.6664 25.0006C81.6664 21.324 78.6764 18.334 74.9998 18.334Z" fill="#252627"></path><path d="M74.9991 23.3322C74.1725 23.3322 73.4541 22.7172 73.3491 21.8739C73.2758 21.2906 71.6692 7.53416 80.6274 0.365941C81.349 -0.210717 82.394 -0.0923754 82.9707 0.625946C83.5457 1.34593 83.4273 2.39259 82.7107 2.96925C75.2191 8.96082 76.6408 21.3373 76.6558 21.4623C76.7674 22.3756 76.1191 23.2073 75.2074 23.3206C75.1374 23.3289 75.0674 23.3322 74.9991 23.3322Z" fill="#252627"></path><path d="M81.6675 71.6663H71.6676C70.746 71.6663 70.001 70.9213 70.001 69.9996C70.001 69.078 70.746 68.333 71.6676 68.333H81.6675C82.5891 68.333 83.3341 69.078 83.3341 69.9996C83.3341 70.9213 82.5891 71.6663 81.6675 71.6663Z" fill="#252627"></path><path d="M61.6688 71.6663H11.6696C10.7479 71.6663 10.0029 70.9213 10.0029 69.9996C10.0029 69.078 10.7479 68.333 11.6696 68.333H61.6688C62.5904 68.333 63.3354 69.078 63.3354 69.9996C63.3354 70.9213 62.5904 71.6663 61.6688 71.6663Z" fill="#252627"></path></svg>